<?xml version="1.0" encoding="UTF-8" standalone="no"?>
<svg
   viewBox="0 0 1663 208"
   fill="none"
   version="1.1"
   id="svg50"
   sodipodi:docname="Group 3.svg"
   inkscape:version="1.1.2 (0a00cf5339, 2022-02-04)"
   xmlns:inkscape="http://www.inkscape.org/namespaces/inkscape"
   xmlns:sodipodi="http://sodipodi.sourceforge.net/DTD/sodipodi-0.dtd"
   xmlns="http://www.w3.org/2000/svg"
   xmlns:svg="http://www.w3.org/2000/svg">
  <defs
     id="defs54" />
  <sodipodi:namedview
     id="namedview52"
     pagecolor="#ffffff"
     bordercolor="#666666"
     borderopacity="1.0"
     inkscape:pageshadow="2"
     inkscape:pageopacity="0.0"
     inkscape:pagecheckerboard="0"
     showgrid="false"
     showguides="false"
     inkscape:zoom="8.2945459"
     inkscape:cx="1675.1972"
     inkscape:cy="154.25799"
     inkscape:window-width="2171"
     inkscape:window-height="1274"
     inkscape:window-x="1279"
     inkscape:window-y="625"
     inkscape:window-maximized="0"
     inkscape:current-layer="svg50" />
  <rect
     x="0"
     y="81"
     width="1663"
     height="127"
     fill="#d0bcff"
     id="rect2" />
  <ellipse
     cx="43.5"
     cy="63.5"
     rx="67.5"
     ry="63.5"
     fill="#d0bcff"
     id="ellipse4" />
  <ellipse
     cx="1643.5"
     cy="71.5"
     rx="67.5"
     ry="63.5"
     fill="#d0bcff"
     id="ellipse6" />
  <ellipse
     cx="1586.5"
     cy="95.5"
     rx="67.5"
     ry="63.5"
     fill="#d0bcff"
     id="ellipse8" />
  <ellipse
     cx="1521.5"
     cy="120.5"
     rx="67.5"
     ry="63.5"
     fill="#d0bcff"
     id="ellipse10" />
  <ellipse
     cx="1463.5"
     cy="95.5"
     rx="67.5"
     ry="63.5"
     fill="#d0bcff"
     id="ellipse12" />
  <ellipse
     cx="1402.5"
     cy="95.5"
     rx="67.5"
     ry="63.5"
     fill="#d0bcff"
     id="ellipse14" />
  <ellipse
     cx="1337.5"
     cy="128.5"
     rx="67.5"
     ry="63.5"
     fill="#d0bcff"
     id="ellipse16" />
  <ellipse
     cx="1261.5"
     cy="144.5"
     rx="67.5"
     ry="63.5"
     fill="#d0bcff"
     id="ellipse18" />
  <ellipse
     cx="1202.5"
     cy="120.5"
     rx="67.5"
     ry="63.5"
     fill="#d0bcff"
     id="ellipse20" />
  <ellipse
     cx="1137.5"
     cy="108.5"
     rx="67.5"
     ry="63.5"
     fill="#d0bcff"
     id="ellipse22" />
  <ellipse
     cx="1067.5"
     cy="127.5"
     rx="67.5"
     ry="63.5"
     fill="#d0bcff"
     id="ellipse24" />
  <ellipse
     cx="1002.5"
     cy="108.5"
     rx="67.5"
     ry="63.5"
     fill="#d0bcff"
     id="ellipse26" />
  <ellipse
     cx="932.5"
     cy="134.5"
     rx="67.5"
     ry="63.5"
     fill="#d0bcff"
     id="ellipse28" />
  <ellipse
     cx="847.5"
     cy="108.5"
     rx="67.5"
     ry="63.5"
     fill="#d0bcff"
     id="ellipse30" />
  <ellipse
     cx="771.5"
     cy="120.5"
     rx="67.5"
     ry="63.5"
     fill="#d0bcff"
     id="ellipse32" />
  <ellipse
     cx="712.5"
     cy="95.5"
     rx="67.5"
     ry="63.5"
     fill="#d0bcff"
     id="ellipse34" />
  <ellipse
     cx="645.5"
     cy="108.5"
     rx="67.5"
     ry="63.5"
     fill="#d0bcff"
     id="ellipse36" />
  <ellipse
     cx="564.5"
     cy="134.5"
     rx="67.5"
     ry="63.5"
     fill="#d0bcff"
     id="ellipse38" />
  <ellipse
     cx="490.5"
     cy="108.5"
     rx="67.5"
     ry="63.5"
     fill="#d0bcff"
     id="ellipse40" />
  <ellipse
     cx="403.5"
     cy="88.5"
     rx="67.5"
     ry="63.5"
     fill="#d0bcff"
     id="ellipse42" />
  <ellipse
     cx="306.5"
     cy="128.5"
     rx="67.5"
     ry="63.5"
     fill="#d0bcff"
     id="ellipse44" />
  <ellipse
     cx="223.5"
     cy="81.5"
     rx="67.5"
     ry="63.5"
     fill="#d0bcff"
     id="ellipse46" />
  <ellipse
     cx="121.5"
     cy="95.5"
     rx="67.5"
     ry="63.5"
     fill="#d0bcff"
     id="ellipse48" />
</svg>
